<svg width="12" height="12" viewBox="0 0 12 12" fill="none" xmlns="http://www.w3.org/2000/svg">
<path fill-rule="evenodd" clip-rule="evenodd" d="M0.750001 5.99995C0.750001 5.90878 0.78951 5.82134 0.859836 5.75688C0.930162 5.69241 1.02555 5.6562 1.125 5.6562H9.96975L7.6095 3.49332C7.57464 3.46136 7.54698 3.42342 7.52811 3.38166C7.50924 3.3399 7.49953 3.29514 7.49953 3.24995C7.49953 3.20475 7.50924 3.15999 7.52811 3.11823C7.54698 3.07647 7.57464 3.03853 7.6095 3.00657C7.64437 2.97461 7.68576 2.94926 7.73131 2.93196C7.77687 2.91466 7.82569 2.90576 7.875 2.90576C7.92431 2.90576 7.97313 2.91466 8.01869 2.93196C8.06424 2.94926 8.10564 2.97461 8.1405 3.00657L11.1405 5.75657C11.1754 5.7885 11.2031 5.82644 11.222 5.8682C11.2409 5.90996 11.2507 5.95473 11.2507 5.99995C11.2507 6.04516 11.2409 6.08993 11.222 6.13169C11.2031 6.17346 11.1754 6.21139 11.1405 6.24332L8.1405 8.99332C8.10564 9.02528 8.06424 9.05063 8.01869 9.06793C7.97313 9.08523 7.92431 9.09413 7.875 9.09413C7.82569 9.09413 7.77687 9.08523 7.73131 9.06793C7.68576 9.05063 7.64437 9.02528 7.6095 8.99332C7.57464 8.96136 7.54698 8.92342 7.52811 8.88166C7.50924 8.8399 7.49953 8.79514 7.49953 8.74995C7.49953 8.70475 7.50924 8.65999 7.52811 8.61823C7.54698 8.57647 7.57464 8.53853 7.6095 8.50657L9.96975 6.3437H1.125C1.02555 6.3437 0.930162 6.30748 0.859836 6.24301C0.78951 6.17855 0.750001 6.09111 0.750001 5.99995Z" fill="#F8F8F8"/>
</svg>
