<svg width="20" height="20" viewBox="0 0 20 20" fill="none" xmlns="http://www.w3.org/2000/svg">
<path fill-rule="evenodd" clip-rule="evenodd" d="M17 5C17 4.73478 16.8946 4.48043 16.7071 4.29289C16.5196 4.10536 16.2652 4 16 4H4C3.73478 4 3.48043 4.10536 3.29289 4.29289C3.10536 4.48043 3 4.73478 3 5C3 5.26522 3.10536 5.51957 3.29289 5.70711C3.48043 5.89464 3.73478 6 4 6H16C16.2652 6 16.5196 5.89464 16.7071 5.70711C16.8946 5.51957 17 5.26522 17 5ZM17 10C17 9.73478 16.8946 9.48043 16.7071 9.29289C16.5196 9.10536 16.2652 9 16 9H4C3.73478 9 3.48043 9.10536 3.29289 9.29289C3.10536 9.48043 3 9.73478 3 10C3 10.2652 3.10536 10.5196 3.29289 10.7071C3.48043 10.8946 3.73478 11 4 11H16C16.2652 11 16.5196 10.8946 16.7071 10.7071C16.8946 10.5196 17 10.2652 17 10ZM11 15C11 14.7348 10.8946 14.4804 10.7071 14.2929C10.5196 14.1054 10.2652 14 10 14H4C3.73478 14 3.48043 14.1054 3.29289 14.2929C3.10536 14.4804 3 14.7348 3 15C3 15.2652 3.10536 15.5196 3.29289 15.7071C3.48043 15.8946 3.73478 16 4 16H10C10.2652 16 10.5196 15.8946 10.7071 15.7071C10.8946 15.5196 11 15.2652 11 15Z" fill="#111111"/>
</svg>
