<svg width="44" height="45" viewBox="0 0 44 45" fill="none" xmlns="http://www.w3.org/2000/svg">
<path d="M15.7143 0H28.2857V45H15.7143V0ZM0 45V16.0714H12.5714V45H0ZM6.28571 0C4.61864 0 3.01984 0.677294 1.84104 1.88288C0.662243 3.08848 0 4.72361 0 6.42857C0 8.13353 0.662243 9.76867 1.84104 10.9743C3.01984 12.1798 4.61864 12.8571 6.28571 12.8571C7.95279 12.8571 9.55158 12.1798 10.7304 10.9743C11.9092 9.76867 12.5714 8.13353 12.5714 6.42857C12.5714 4.72361 11.9092 3.08848 10.7304 1.88288C9.55158 0.677294 7.95279 0 6.28571 0ZM31.4286 0H44V12.8571H31.4286V0ZM44 16.0714H31.4286V28.9286H44V16.0714Z" fill="black"/>
</svg>
