<svg width="44" height="44" viewBox="0 0 44 44" fill="none" xmlns="http://www.w3.org/2000/svg">
<path d="M9.42857 3.14286V9.42857H3.14286V3.14286H9.42857ZM0 0V12.5714H12.5714V0H0ZM25.1429 7.85714V14.1429H18.8571V7.85714H25.1429ZM15.7143 4.71429V17.2857H28.2857V4.71429H15.7143ZM9.42857 22V28.2857H3.14286V22H9.42857ZM0 18.8571V31.4286H12.5714V18.8571H0Z" fill="black"/>
<path d="M31.4286 12.5714V22H22V31.4286L12.5714 31.4286L12.5714 44H44V12.5714H31.4286ZM25.1429 25.1429H31.4286V31.4286H25.1429V25.1429ZM22 40.8571H15.7143V34.5714H22V40.8571ZM31.4286 40.8571H25.1429V34.5714H31.4286V40.8571ZM40.8571 40.8571H34.5714V34.5714H40.8571V40.8571ZM40.8571 31.4286H34.5714V25.1429H40.8571V31.4286ZM34.5714 22V15.7143H40.8571V22H34.5714Z" fill="black"/>
</svg>
